<svg width="100" height="100" viewBox="0 0 100 100" fill="none" xmlns="http://www.w3.org/2000/svg">
<path d="M64.4013 12.7858C65.0735 12.5992 65.6909 12.3531 66.2539 12.0466C67.0983 11.587 70.5389 9.58299 72.1369 8.58078C73.735 7.57856 74.8938 6.99633 75.2954 7.00033C75.6966 7.00432 76.6169 7.07626 76.8715 7.6437C77.126 8.21114 77.0681 7.79834 77.4781 8.16838C77.8877 8.53842 78.5982 7.90184 78.3872 8.74181C78.1762 9.58179 78.2106 9.32724 78.7324 10.0405C79.2543 10.7538 78.939 10.367 78.9822 11.1742C79.0254 11.9814 78.2178 11.2997 78.8407 12.1273C79.4637 12.9549 80.1311 12.9972 80.2849 13.5051C80.4388 14.013 80.1335 14.3719 80.5455 14.9849C80.9575 15.5983 81.5996 16.0195 81.7523 16.0746C81.9049 16.1294 82.3885 15.5947 82.9011 16.2241C83.4138 16.8534 83.8514 16.8051 84.0392 17.8601C84.227 18.915 84.428 18.8391 84.7765 19.333C85.125 19.8269 85.3459 20.7608 85.5034 21.423C85.6608 22.0851 86.0473 22.768 85.294 23.1509C84.5407 23.5337 77.8981 28.2522 76.7924 28.351C75.6866 28.4493 73.7669 28.5767 72.7823 26.8864C71.7977 25.1956 69.2238 20.1062 68.4953 18.7116C67.7668 17.317 66.5181 14.865 65.324 14.6288C64.5272 14.4706 64.2199 13.8568 64.4013 12.7858Z" fill="#CAC7C6"/>
<path d="M72.1283 19.6041C73.4406 18.4919 77.3716 16.8472 80.8993 15.4158C81.2561 15.7906 81.6394 16.0336 81.7529 16.0743C81.9055 16.1291 82.389 15.5944 82.9017 16.2238C83.4144 16.8531 83.852 16.8048 84.0398 17.8598C84.2276 18.9147 84.4286 18.8388 84.7771 19.3327C84.9861 19.6292 85.1491 20.0836 85.2802 20.5431L85.5036 21.4227C85.661 22.0848 86.0474 22.7677 85.2942 23.1506L84.9285 23.37C83.3257 24.3898 77.7927 28.2612 76.7925 28.3503L76.2738 28.389C75.1573 28.4482 73.6264 28.3351 72.7825 26.8857C72.1531 25.8052 70.8747 23.3364 69.8438 21.3312L71.1369 20.3877C71.4534 20.1515 71.7866 19.8938 72.1283 19.6041Z" fill="#BFBCBB"/>
<path d="M81.7521 16.0739C81.9048 16.1287 82.3883 15.594 82.901 16.2234C83.4137 16.8528 83.8513 16.8044 84.0391 17.8594C84.2141 18.8436 84.4007 18.8436 84.708 19.24C84.6145 19.5977 84.4735 19.9026 84.2345 19.9877L83.8764 20.1384C82.3591 20.8053 76.9101 23.346 76.3235 23.511C75.6677 23.6957 76.6052 22.9732 77.5579 22.4073C78.5105 21.8415 82.3599 20.534 83.49 19.9242C84.2437 19.5178 84.3903 19.0974 83.93 18.6634L83.534 17.5553C83.5212 17.5165 83.5108 17.4842 83.5036 17.4594C83.4365 17.2344 82.7484 17.0534 82.4507 16.9691C82.1529 16.8851 80.5949 18.0656 79.5319 18.7865C78.5869 19.4271 76.7095 19.8598 75.1366 20.3489L74.5636 20.5356C72.9808 21.079 74.9484 19.7755 76.4322 19.0826L78.5565 18.1195C79.9835 17.4526 81.4908 16.6981 81.6802 16.4216C81.7222 16.3605 81.7042 16.2194 81.6418 16.0204L81.7521 16.0739ZM72.0305 12.0127L72.2942 11.8901L73.6629 11.3118C74.5964 10.9298 75.4927 10.5821 75.8747 10.4263C76.2903 10.2573 77.7597 9.94717 78.5821 9.83768L78.7327 10.0399C79.2098 10.692 78.9869 10.4243 78.9785 10.9913C78.4662 10.4467 77.0823 10.684 76.4701 10.6709C75.9834 10.6601 73.5994 11.6815 72.1188 12.3476L70.9967 12.8675C70.4229 13.1528 70.932 12.5518 72.0305 12.0127Z" fill="#DCD9D8"/>
<path d="M71.1696 21.3099C72.6385 23.915 74.038 25.4974 75.2288 25.6137C77.015 25.7883 81.8767 23.332 82.8005 22.3649C83.3304 21.8102 84.0429 20.8963 84.938 19.6232L84.7762 19.3323C84.9852 19.6288 85.1482 20.0831 85.2793 20.5427L85.5027 21.4222C85.6601 22.0844 86.0466 22.7673 85.2933 23.1501L84.9277 23.3695C83.3248 24.3893 77.7919 28.2607 76.7916 28.3498L76.273 28.3886C75.1565 28.4477 73.6256 28.3346 72.7816 26.8852L72.3644 26.1424C71.7326 24.9891 70.8303 23.2492 70.0359 21.7059C70.5066 21.4486 70.4399 21.5777 71.1696 21.3099Z" fill="#A5A19F"/>
<path d="M75.2961 6.9999L75.6757 7.02228C76.1157 7.07063 76.6811 7.21769 76.8717 7.64327C77.1263 8.21071 77.0683 7.79792 77.4783 8.16795C77.796 8.45487 78.2947 8.13638 78.4042 8.37095L78.3391 8.4261L77.6649 8.60033C77.5431 8.6283 77.3968 8.65947 77.2126 8.69584L76.534 8.82251C75.3052 9.04109 74.0513 9.47468 73.5897 9.90026L72.928 10.5448C72.4916 10.9496 71.9581 11.3556 71.4155 11.384C70.6554 11.4236 69.9321 11.6525 69.6344 11.8487L69.3667 12.0721C69.0766 12.2951 68.4532 12.7195 67.4969 13.3453L66.5694 13.5774L66.0084 13.6949C65.757 13.7349 65.2703 13.8831 64.5482 14.1393C64.3504 13.8256 64.3025 13.3748 64.4024 12.7858C65.0745 12.5992 65.6919 12.353 66.2549 12.0466L68.9139 10.5172C69.5801 10.1264 70.2766 9.71364 70.9008 9.33801L72.9643 8.07684C74.132 7.38632 74.9676 6.9967 75.2961 6.9999Z" fill="#DCD9D7"/>
<path d="M66.6948 15.0202C68.2913 14.7629 69.5129 14.4292 70.3592 14.0196L72.0256 13.2364C73.4766 12.5766 75.1661 11.8757 75.3479 12.1019C75.5241 12.3213 76.1859 12.2997 77.3332 12.0376C77.8562 12.0156 78.2878 11.9344 78.6275 11.795C78.6499 11.8593 78.717 11.9636 78.8401 12.1271C79.4631 12.9547 80.1304 12.997 80.2843 13.5049C80.4381 14.0128 80.1328 14.3717 80.5448 14.9847C80.9568 15.5981 81.599 16.0192 81.7516 16.0744C81.7976 16.0908 81.8731 16.0544 81.9702 16.012C81.9051 16.3501 81.7212 16.6146 81.4223 16.8077L80.9688 17.0686C79.3548 17.9477 74.8017 20.1528 74.3825 20.3306C73.9109 20.5308 72.5798 21.4131 72.2725 21.8527C71.9652 22.2927 71.4158 22.6847 71.0525 21.997L70.6098 21.2469C69.9624 20.1847 68.6573 18.1092 66.6948 15.0202Z" fill="#A5A19F"/>
<path d="M71.5029 17.1098C70.6178 17.0514 71.5692 16.7373 72.5826 16.5695C73.4514 16.4256 74.2242 15.9809 75.3523 15.5305L75.9481 15.3063C77.4171 14.7888 78.2603 14.2829 79.535 14.1191L80.1916 14.0268C80.2447 14.018 80.2919 14.0092 80.3338 14.0004C80.3131 14.2941 80.2779 14.5854 80.5456 14.9838C80.7167 15.2384 80.9272 15.4598 81.1259 15.6356C80.5916 15.4798 79.8619 15.1389 79.318 14.9719C78.687 14.7776 77.8515 15.2412 76.6566 15.6452L76.1915 15.7923C74.7437 16.2174 72.388 17.1685 71.5029 17.1098ZM66.6948 15.0202C68.2913 14.7629 69.5129 14.4292 70.3592 14.0196L72.0256 13.2364L73.0466 12.7848C74.1759 12.3025 75.2081 11.9277 75.3479 12.1019C75.5242 12.3213 76.1859 12.2997 77.3332 12.0376C77.8563 12.0156 78.2878 11.9344 78.6275 11.795C78.6499 11.8593 78.717 11.9636 78.8401 12.1271C79.1374 12.5223 79.4451 12.7385 79.7021 12.9119C79.3876 12.7636 79.0503 12.6557 78.7921 12.6378C78.2171 12.597 75.8566 13.7599 74.4132 14.3345L74.0732 14.4648C72.794 14.9319 69.3083 16.0448 67.3342 15.5817L66.9801 15.4706L66.6948 15.0202Z" fill="#989593"/>
<path d="M1.28097 83.9504C0.839406 81.6207 0.957289 79.8904 1.63382 78.7587C2.64923 77.0612 8.83275 72.6955 10.9882 71.0459C13.1441 69.3963 16.4205 66.4404 18.6599 64.2937C20.8993 62.1471 30.559 51.0592 34.5035 46.0669C38.4481 41.0746 42.134 34.9997 42.6979 30.6704C43.2621 26.341 42.8445 22.6127 43.0907 21.1365C43.3369 19.6604 44.5137 16.3237 45.1559 16.0024C45.798 15.6811 47.1235 16.1471 47.7821 16.3113C48.2213 16.4208 48.7563 16.7549 49.3877 17.3131C50.163 17.825 50.7644 18.0624 51.1919 18.0248C51.8333 17.9689 53.2064 16.9067 54.1554 16.8312C55.1045 16.7557 58.7705 16.1163 61.2205 14.6277C63.6705 13.1396 64.0521 12.961 64.4018 12.786C64.7514 12.6109 66.8126 14.0943 68.4502 16.4132C70.0878 18.7321 73.319 25.6973 73.922 26.3398C74.525 26.9824 75.9468 27.6849 78.6921 26.3111C81.4374 24.9372 84.5584 22.6179 84.8865 22.4533C85.2145 22.2886 85.3008 20.645 85.3008 20.645C85.3008 20.645 86.3602 22.6718 86.8657 23.2525C87.3712 23.8331 89.6618 27.2445 90.2244 28.2296C90.7871 29.2146 91.9143 30.3587 92.5349 31.5983C93.1555 32.8379 95.2575 36.8187 95.9364 39.6432C93.1308 41.7751 65.9083 56.8439 57.001 61.2979C48.0934 65.7515 16.7602 79.6139 13.1613 81.0677C10.7621 82.0375 6.80195 82.9982 1.28097 83.9504Z" fill="#F5C3A7"/>
<path d="M73.9216 26.3394C74.5246 26.982 75.9464 27.6845 78.6917 26.3106C81.437 24.9368 84.558 22.6175 84.886 22.4528C85.2141 22.2882 85.3004 20.6446 85.3004 20.6446L85.8935 21.7307C86.1668 22.2134 86.4841 22.7465 86.7286 23.079L86.8657 23.2524C87.3712 23.8331 89.6618 27.2445 90.2244 28.2295C90.7871 29.2146 91.9143 30.3586 92.5349 31.5982L93.462 33.4444C94.33 35.2127 95.4697 37.701 95.9364 39.6427C93.3345 41.6196 69.7385 54.7203 59.2185 60.1666L57.001 61.2979C48.0934 65.7515 16.7602 79.6139 13.1613 81.0677C10.7621 82.0371 6.80195 82.9978 1.28097 83.95C0.839406 81.6203 0.957289 79.89 1.63382 78.7583C2.11655 77.9507 3.76893 76.5397 5.60073 75.1043C8.08629 75.1199 11.0326 74.224 14.4392 72.4217C21.4807 68.6962 32.6901 60.6925 37.1581 50.1976C38.2551 47.6213 38.4477 44.3353 38.2922 40.7564C40.5776 37.1783 73.319 25.6968 73.9216 26.3394Z" fill="#EEEBEA"/>
<path d="M47.7816 16.3105C48.2208 16.42 48.7559 16.7541 49.3873 17.3123L49.4664 17.3607L49.1579 17.4606C48.8518 17.5781 48.1908 17.5761 47.7633 18.297C47.3353 19.0179 47.2266 19.6828 46.5045 20.3809C46.023 20.8465 45.5534 21.4942 45.0955 22.3238C44.9987 22.0325 45.0187 21.2321 45.1562 19.9218C45.3308 18.2546 46.576 16.5919 47.0767 16.1139L47.7816 16.3105Z" fill="#4F232C"/>
<path d="M52.6622 20.0936C56.9057 20.1092 58.8094 21.5326 62.216 19.7875C64.4043 18.6666 66.159 16.7161 67.5972 15.3155C67.8865 15.6556 68.1746 16.0224 68.4503 16.4132C70.0879 18.7321 73.3191 25.6973 73.9221 26.3399C74.5252 26.9824 75.947 27.6849 78.6923 26.3111C81.4376 24.9372 84.5585 22.6179 84.8866 22.4533C85.2146 22.2886 85.301 20.6451 85.301 20.6451L85.894 21.7312C86.1673 22.2139 86.4846 22.747 86.7292 23.0795L87.0468 23.4787C84.2868 25.9311 78.8197 29.6138 73.2372 31.5148C66.9026 33.6719 57.6134 32.1917 59.7721 34.2996C61.9307 36.4076 70.7736 36.364 75.9801 33.5727L77.4419 32.7815C80.4957 31.1132 84.3331 28.9325 88.9538 26.2388L89.8053 27.5427C89.984 27.8248 90.1298 28.0622 90.2253 28.2296C90.788 29.2146 91.9153 30.3587 92.5359 31.5983L93.4629 33.4445C94.3309 35.2127 95.4706 37.7011 95.9373 39.6428C93.3355 41.6196 69.7395 54.7204 59.2194 60.1666L57.002 61.2979C48.0943 65.7515 16.7611 79.6139 13.1623 81.0677C10.763 82.0371 6.80292 82.9978 1.28195 83.95C0.840383 81.6203 0.958265 79.89 1.6348 78.7584C1.90933 78.2992 2.56229 77.6446 3.41106 76.9018C4.27661 77.9467 6.59952 78.5733 11.1974 76.8031C19.2711 73.6941 24.4248 70.7442 30.5 66.2682C36.5753 61.7922 38.0986 55.9044 39.4352 48.6168L39.6298 47.6569C41.3897 39.6304 48.5918 20.0788 52.6622 20.0936Z" fill="#E5E2E1"/>
<path d="M61.6088 20.102L61.8886 19.9473L62.2154 19.7875C64.4037 18.6666 66.1584 16.7161 67.5966 15.3155C67.8859 15.6556 68.174 16.0224 68.4497 16.4132C70.0873 18.7321 73.3186 25.6973 73.9216 26.3399C74.246 26.6859 74.8083 27.0492 75.6862 27.0963C75.7166 27.4895 75.6638 27.7656 75.5156 27.8915C74.2752 28.9453 69.9934 31.283 65.7796 31.2926C61.5657 31.3022 56.2913 32.9122 59.5924 34.5282C60.0652 34.7596 60.6122 34.9582 61.2148 35.1216C64.5815 36.3284 71.5795 35.932 75.9799 33.5727L77.4417 32.7815L79.2531 31.7829C80.5163 31.0808 81.8913 30.3056 83.3775 29.4576L83.1585 29.7625C80.7329 32.865 74.7719 37.9992 71.4112 39.5784C68.0505 41.1577 63.8678 41.6912 61.266 40.9367C58.6637 40.1823 55.5568 36.1858 53.1579 37.1033C50.7591 38.0208 44.6531 42.4169 46.0941 38.9211C47.5351 35.4253 51.5168 28.5645 51.5755 25.4555C51.627 22.7274 52.1609 20.5907 54.0722 20.1499C55.2195 20.2379 56.1874 20.4057 57.0885 20.5236L57.7858 20.6043C58.9039 20.8492 60.0704 20.926 61.6088 20.102Z" fill="#DBD9D8"/>
<path d="M4.05862 80.8237C7.69944 80.4317 23.9107 75.2971 36.1854 69.1292C48.4602 62.9612 56.804 58.2702 69.1746 52.7053C74.4678 50.3241 79.1029 48.4843 83.0801 47.1859L76.7628 50.7037C70.2871 54.2822 63.6125 57.8922 59.2184 60.1668L57.001 61.2981C48.0933 65.7517 16.7601 79.6141 13.1613 81.0678C10.762 82.0373 6.80192 82.9979 1.28095 83.9502C1.04878 82.7258 0.971254 81.6664 1.04838 80.7729C1.85399 80.9364 2.857 80.9531 4.05862 80.8237Z" fill="#D5D1CF"/>
<path d="M53.7573 23.5372C54.0582 20.5933 55.0668 23.8417 59.6339 22.6277C64.201 21.4137 65.8857 19.0196 67.9105 17.4468C68.1599 17.2529 68.45 17.1059 68.7809 17.0056L69.1154 17.5231C70.8345 20.3023 73.37 25.753 73.9206 26.3396C74.0289 26.4551 74.1636 26.5722 74.3274 26.6789L74.2631 26.7476C72.2655 28.7109 70.0884 29.7143 66.2746 29.6516C62.4607 29.5888 61.3858 28.601 58.8395 30.2993C56.2932 31.9972 56.8151 34.1495 57.9184 34.9671C59.0217 35.7847 66.0568 37.0411 69.258 36.2447C72.4593 35.4483 85.13 27.7858 83.6283 30.1639C82.1266 32.5419 71.2101 39.219 67.5581 39.3788C63.9061 39.5382 59.542 37.9126 56.5933 36.6323C53.6446 35.3516 52.3998 36.5807 49.3764 37.6409L48.8157 37.8131C46.7526 38.3286 49.2981 35.9246 50.5296 33.8938C51.4951 32.3022 53.0831 30.7621 53.7293 27.8969C53.9311 27.003 53.6857 24.2365 53.7573 23.5372Z" fill="#CFCDCC"/>
<path d="M88.9525 26.2385L89.8041 27.5424L90.1126 28.0396C90.155 28.1099 90.1925 28.1738 90.2245 28.2294C90.7871 29.2144 91.9144 30.3585 92.535 31.5981L93.4621 33.4442C94.33 35.2125 95.4697 37.7009 95.9365 39.6425L95.5928 39.8867C92.9562 41.6765 81.7652 47.9875 71.6831 53.4945C75.4322 49.0793 77.861 43.1571 78.9707 35.728C79.1426 34.5695 86.0981 27.9025 88.9525 26.2385Z" fill="#CECECE"/>
<path d="M88.9528 26.2385L89.8044 27.5424L90.2244 28.2294C90.787 29.2144 91.9143 30.3585 92.5349 31.5981L93.462 33.4443C94.3299 35.2125 95.4696 37.7009 95.9364 39.6426L95.5927 39.8867L94.431 40.6304C92.0242 42.1182 87.3684 44.7871 82.052 47.7626C86.8741 41.6474 88.2563 35.151 86.1987 28.2757L87.0827 27.5576C87.7956 26.9974 88.4401 26.537 88.9528 26.2385Z" fill="#C2C2C2"/>
<path d="M88.9533 26.2385L89.8048 27.5424L90.2248 28.2294C90.7875 29.2144 91.9148 30.3585 92.5353 31.5981L93.4624 33.4443C94.3304 35.2125 95.4701 37.7009 95.9368 39.6426L95.5931 39.8867L94.4315 40.6304L93.0057 41.4939C92.8271 41.6006 92.642 41.7105 92.4506 41.8232L92.4235 41.6614C91.91 37.7364 90.2864 32.9148 87.5522 27.1972C88.0773 26.8 88.5549 26.4707 88.9533 26.2385Z" fill="#B9B9B9"/>
<path d="M51.1913 18.0239C51.3116 18.0135 51.4575 17.9676 51.6217 17.8997L51.5058 18.3528C51.7184 18.3732 51.9594 18.312 52.2283 18.1686L52.8441 17.8509C53.2062 17.6735 53.6333 17.4861 54.0497 17.3674C54.7435 17.1696 57.0552 17.2007 58.3012 16.7128C59.5471 16.2249 64.7017 13.502 65.1424 13.289L65.3446 13.2067C66.1802 13.7881 67.4014 14.9294 68.4488 16.4131C70.0864 18.732 73.3176 25.6972 73.9206 26.3398C74.5236 26.9823 75.9454 27.6848 78.6907 26.311C81.436 24.9371 84.557 22.6178 84.885 22.4532C85.2131 22.2885 85.2994 20.645 85.2994 20.645L85.8925 21.7311C86.1658 22.2138 86.4831 22.7469 86.7276 23.0794L86.8647 23.2528C87.3702 23.8334 89.6608 27.2449 90.2234 28.2299C90.786 29.2149 91.9133 30.359 92.5339 31.5986L93.461 33.4448C94.329 35.213 95.4686 37.7014 95.9354 39.6431L95.5777 39.8964L95.698 40.1981L95.0207 38.5721C93.0574 33.9027 91.7175 31.1111 91.0006 30.1964C89.8058 28.6723 86.736 24.0384 86.4032 23.6308C86.1814 23.3591 85.9164 23.1337 85.6091 22.9551L83.6047 24.3805C80.893 26.283 78.9772 27.5086 77.8575 28.0569C75.7908 29.0687 73.2641 28.7838 71.5705 25.3879L69.6328 21.5093C68.4096 19.0949 67.2048 16.8359 66.5151 16.0319C65.8046 15.2035 65.1233 14.527 64.4719 14.0027L63.1152 14.7583C60.9717 15.9332 59.4177 16.6857 58.4522 17.0153C56.7151 17.6087 54.7898 17.0817 53.7368 17.6367C53.0347 18.0067 52.3007 18.374 51.535 18.7384L50.916 18.6485L51.1913 18.0239Z" fill="#BFBCBA"/>
<path d="M46.0675 31.3394L46.3752 31.2155C51.9426 32.5778 60.053 33.3794 70.7021 33.6192L73.6692 33.6707L73.9497 33.9744C73.9022 34.7465 73.8702 35.2628 73.8542 35.5233C73.8498 35.5964 73.7987 35.827 73.7012 36.215C73.6337 37.2492 73.5453 38.6478 73.4366 40.4109C73.2736 43.0555 73.2632 45.0347 73.2181 45.7089C73.1941 46.0653 73.1709 46.4242 73.1505 46.7798C73.0091 49.2498 72.8804 51.9064 72.7146 54.8991C72.7058 55.0561 72.5715 55.1764 72.4144 55.1676C72.2574 55.1588 72.1371 55.0245 72.1459 54.8675C72.4996 51.3469 72.7269 48.7227 72.8276 46.994C72.8448 46.7007 72.8616 46.3898 72.8784 46.0613C72.9339 44.9796 73.1433 43.2657 73.2896 40.5627C73.4494 37.608 73.3683 36.9303 73.3779 36.0296C73.3843 35.429 73.3775 34.8312 73.3575 34.2358L72.1575 34.2186C61.2414 34.0296 52.8641 33.2751 47.0202 31.9532L46.436 31.8149L36.8558 46.9409L33.1642 52.8447L33.3836 53.0149C36.1317 55.1716 40.0826 58.9675 45.242 64.4065L46.9611 66.2319C47.0686 66.3466 47.0626 66.5268 46.9475 66.6343C46.8324 66.7418 46.6526 66.7358 46.5451 66.6207L44.8743 64.8465C39.9835 59.6883 36.1825 56.0108 33.4763 53.8169L32.6148 53.1408L32.5444 52.764L35.9131 47.3697L46.0675 31.3394Z" fill="#BBBBBB"/>
<path d="M45.1556 16.0018C45.7977 15.6806 47.1232 16.1465 47.7818 16.3107C48.0963 16.3895 48.4603 16.5829 48.8735 16.8918C48.7245 16.9793 48.5602 17.0916 48.3824 17.2306L47.379 18.0614C47.0865 18.306 46.9486 18.4662 46.8127 18.873L46.5378 19.8193C46.4623 20.0435 46.4027 20.1258 46.1814 20.5949C45.8273 21.3458 45.4633 21.6671 45.2015 22.0783C44.9398 22.4895 44.489 23.3542 44.264 23.8162C44.0387 24.2781 43.7114 24.4444 43.3366 24.649C43.2427 24.7001 43.1356 24.7884 43.0157 24.9135L43.0049 22.6705C43.0085 22.0319 43.0281 21.5112 43.0908 21.136C43.3366 19.6599 44.5134 16.3235 45.1556 16.0018Z" fill="#682340"/>
<path d="M45.0285 17.3172C44.8954 17.4351 44.5925 17.5866 44.119 17.7724C44.7184 17.981 44.8898 18.1504 44.6333 18.2815C44.2484 18.4781 43.9112 18.3942 43.8496 18.6735C43.7881 18.9528 44.0051 18.996 44.6696 18.8729C45.1128 18.791 45.3965 18.8773 45.5208 19.1318L44.7416 19.2993C44.0582 19.4627 43.6634 19.6138 43.5575 19.7524C43.3449 20.0298 43.5631 20.2472 43.8452 20.3271C44.1274 20.407 44.0438 21.0799 43.9319 21.3409C43.8201 21.6018 43.6286 21.5303 43.4224 21.5958C43.3229 21.6274 43.1403 21.7812 43.0168 21.9786C43.0308 21.6462 43.0532 21.364 43.0912 21.1359C43.263 20.1053 43.8884 18.168 44.469 16.9828C44.9322 17.1286 45.1184 17.2373 45.0285 17.3172Z" fill="#E2AAC1"/>
<path d="M17.0665 79.25C16.223 75.4721 15.8729 72.7136 16.0176 70.9749C16.2342 68.3666 16.8607 66.0301 17.2292 65.5522C17.598 65.0739 21.5661 60.5703 22.926 59.0806C24.2858 57.5908 34.4606 45.9271 36.2928 43.4511C38.125 40.9751 41.809 35.6895 42.3365 32.2809C42.864 28.8722 43.1249 26.6368 43.5149 25.7257C43.905 24.8146 45.2404 22.2419 46.8972 20.8441C48.554 19.4463 50.9049 18.12 51.1914 18.0245C51.3824 17.961 51.6322 18.1703 51.9403 18.6531C50.7163 22.8725 49.9946 25.5203 49.7756 26.5961C49.4471 28.2097 47.3 32.591 46.9919 34.1646C46.6838 35.7383 44.7693 39.3519 41.839 43.5266C38.9087 47.7009 29.8763 58.0815 26.7886 61.1521C23.7008 64.2231 23.7052 64.4325 23.4778 64.5748C23.2505 64.717 22.902 65.4995 22.5547 65.7328C22.2075 65.9662 21.9054 66.8198 21.8343 67.386C21.7631 67.9518 21.6836 70.4078 22.2522 72.7383C22.6315 74.292 23.0019 75.6639 23.3643 76.8543L17.0665 79.25Z" fill="#F2EFEE"/>
<path d="M22.2526 72.7375C22.6319 74.2912 23.0023 75.663 23.3647 76.8535L17.0669 79.2495C16.7676 77.9084 16.5303 76.696 16.3552 75.6123C18.016 73.8592 20.1195 71.9811 21.8251 69.7936C21.881 70.6875 22.0057 71.7245 22.2526 72.7375ZM51.1918 18.0241C51.3828 17.9605 51.6326 18.1699 51.9407 18.6526L50.7754 22.7366C50.2459 24.6372 49.9127 25.9235 49.776 26.5956C49.4731 28.085 47.6201 31.9328 47.0946 33.7534L46.9927 34.1638C46.8425 34.9311 46.3102 36.1838 45.4642 37.7499L45.8531 36.4404C47.577 30.2988 48.0285 23.8971 47.4083 23.8276C46.8972 23.77 44.719 25.8496 43.0678 27.5367L43.2416 26.6512C43.3287 26.2616 43.4182 25.9527 43.5154 25.7253L43.7603 25.197C44.3242 24.0501 45.4958 22.0261 46.8976 20.8437C48.5544 19.4463 50.9053 18.1196 51.1918 18.0241Z" fill="#E0DCDC"/>
<path d="M50.5621 18.5493L50.8406 18.8993C49.5986 23.9032 48.2448 27.7494 46.9437 31.3275C45.9606 34.0304 45.5103 35.296 44.3794 37.7192C43.6253 39.3348 42.6966 40.9341 41.5925 42.5161C39.6161 45.5443 33.5828 52.5306 30.5666 55.6008L28.5306 57.6348L26.8646 59.3471C24.1321 62.2007 21.7117 64.9584 21.0195 66.2304C20.2875 67.5755 20.6151 70.9086 22.019 76.1167L22.2495 76.9546L22.3838 77.2244L21.8515 77.427L21.7209 77.1592C20.556 73.0233 20.0053 69.9647 20.0813 67.9547L20.0961 67.6969L18.0133 69.4009C17.1749 70.101 16.7553 70.4842 16.7549 70.5505C16.7533 70.8215 16.7042 71.1388 16.7198 71.3861L16.7929 72.2948C16.9048 73.4661 17.109 75.0277 17.4059 76.9782L17.7232 79.0002L17.1873 79.2016L16.5575 75.2319C16.3681 73.9975 16.2698 73.1731 16.2306 71.6435C16.1743 69.4636 16.8972 66.8973 17.2784 65.4923L17.543 65.1754L17.5905 64.992C17.1741 66.7515 16.8249 68.3679 16.7362 69.671L16.7905 69.6402C16.8452 69.6011 16.9416 69.5267 17.0794 69.4172L20.2099 66.8354L20.2175 66.8074C20.2671 66.5844 20.329 66.3826 20.4041 66.202L20.52 65.959C21.3788 64.3814 24.6624 60.7462 28.0346 57.3275L29.7174 55.6468C32.3712 53.0357 38.416 46.0958 40.7753 42.7095C41.8603 41.2737 42.8956 39.5182 43.8819 37.4439C45.3612 34.3325 45.4355 33.8102 46.409 31.1329C47.5734 27.9308 48.7978 24.5949 49.9167 20.2364L50.1125 19.4528L49.9863 19.5351C48.5693 20.4534 47.5443 21.2958 46.616 22.1409L46.172 22.5605C45.205 23.5116 44.6123 24.4199 44.3854 25.2822L44.3106 25.6491L43.7472 25.568C43.7792 25.3454 43.8323 25.1216 43.9058 24.897C44.2223 24.2956 44.6639 23.5256 45.195 22.7727C45.3676 22.5677 45.5622 22.3615 45.7728 22.1545C46.7898 21.1543 48.1393 20.1097 49.8212 19.0196L50.5621 18.5493Z" fill="#D1CDCC"/>
<path d="M51.9402 18.6526L50.775 22.7366C50.2455 24.6372 49.9122 25.9235 49.7756 26.5956C49.4727 28.085 47.6197 31.9328 47.0942 33.7534L46.9923 34.1638C46.6842 35.7374 44.7697 39.3511 41.8394 43.5258C39.0261 47.5334 30.5896 57.2599 27.1874 60.7488L25.3916 62.5595C23.6952 64.2962 23.6645 64.4576 23.4782 64.5739C23.2888 64.6926 23.0151 65.2556 22.7282 65.5749L22.5551 65.7319C22.2079 65.9653 21.9058 66.8189 21.8346 67.3851L21.8059 67.7312C21.7591 68.5508 21.7627 70.3338 22.1216 72.1441L21.6888 70.0585C21.5985 69.5938 21.5262 69.1909 21.4834 68.8956C21.2384 67.2081 21.4902 65.521 23.2469 63.6332L24.4721 62.3493C26.8553 59.8817 31.1335 55.5344 34.2776 51.9383C38.0835 47.585 41.9333 43.1198 44.2954 38.3085C46.6574 33.4972 49.8063 23.7089 50.1576 22.4461L51.1538 18.659C51.2062 18.4552 51.2605 18.2442 51.3165 18.0265C51.4855 18.056 51.6941 18.267 51.9402 18.6526Z" fill="#C4C4C4"/>
<path d="M20.204 61.765C20.8382 61.4301 21.4968 62.3136 21.6882 62.6305C21.8796 62.9474 21.617 63.733 21.2706 63.8533C20.9237 63.974 19.8108 63.5388 19.5994 63.1847C19.3876 62.8311 19.5699 62.0994 20.204 61.765ZM23.6814 58.1625C24.3156 57.8276 25.4381 58.7215 25.6295 59.0384C25.8209 59.3553 25.3282 60.117 24.9817 60.2376C24.6353 60.3583 23.3258 59.675 23.1092 59.1803C22.8926 58.6856 23.0472 58.4974 23.6814 58.1625ZM26.8355 54.3231L26.9178 54.2863C27.2211 54.186 28.7852 55.01 28.9766 55.3269C29.168 55.6438 28.6753 56.4054 28.3288 56.5261C27.982 56.6468 26.3896 56.0538 26.173 55.559C25.9564 55.0643 26.6149 54.3866 26.9182 54.2863L26.8355 54.3231ZM29.2675 52.0493C28.8324 51.716 29.4749 50.9939 30.1355 50.7921C30.7956 50.5899 32.0028 51.5158 32.1943 51.8327C32.3857 52.1496 31.9301 52.7598 31.3711 52.9988C30.812 53.2377 29.7027 52.383 29.2675 52.0493ZM32.627 47.9941C32.018 47.9181 32.8276 46.8984 33.4878 46.6962C34.1479 46.494 35.3036 47.3443 35.495 47.6616C35.6864 47.9785 35.2696 48.5519 34.7106 48.7909C34.1515 49.0295 33.236 48.07 32.627 47.9941ZM36.6199 42.6585L36.7314 42.6162C37.3915 42.414 38.0753 43.0353 38.2667 43.3522C38.4581 43.6691 38.0413 44.2426 37.4823 44.4815C36.9232 44.7205 36.4357 44.1618 35.8267 44.0859C35.2177 44.01 36.0712 42.8184 36.7314 42.6166L36.6199 42.6585ZM39.6809 38.5797L39.7872 38.539C40.4473 38.3368 41.4324 38.9022 41.6238 39.2191C41.8152 39.536 41.3984 40.1094 40.8393 40.3484C40.2803 40.5874 39.3976 40.1858 38.7882 40.1098C38.1792 40.0339 39.127 38.7412 39.7872 38.5394L39.6809 38.5797ZM41.6414 34.1505L41.7405 34.1077C42.4006 33.9055 43.4004 34.238 43.643 34.8086C43.8856 35.3793 43.3601 35.8656 42.801 36.1042C42.242 36.3427 41.3604 35.7369 40.8757 35.9759C40.391 36.2145 41.0803 34.3095 41.7405 34.1077L41.6414 34.1505ZM42.851 29.3716L42.9529 29.3256C43.613 29.1234 45.3761 29.5606 45.6187 30.1316C45.8612 30.7023 45.0668 31.3297 44.5077 31.5682C43.9487 31.8068 42.8797 30.99 42.395 31.2286C41.9103 31.4671 42.2931 29.5278 42.9533 29.3256L42.851 29.3716ZM44.0198 24.6994L44.1945 24.6187C45.643 24.0464 46.8291 24.5463 47.1863 25.3072C47.5436 26.068 47.062 26.4241 46.0978 26.9935C45.1335 27.563 43.5023 27.141 43.0176 27.3799C42.5329 27.6185 42.7459 25.1909 44.1945 24.6187L44.0198 24.6994Z" fill="#F8CAB0"/>
<path d="M21.6884 62.6305C21.8798 62.9473 21.6173 63.733 21.2708 63.8532C20.9239 63.9739 19.811 63.5388 19.5996 63.1847C19.5489 63.1 19.5209 62.9937 19.5161 62.8762C19.8318 63.2654 20.1019 63.3254 20.3605 63.4033C20.7413 63.518 20.8584 63.0524 20.9807 62.6888C21.053 62.4742 21.0346 62.1417 20.9863 61.8632C21.3132 62.0774 21.5781 62.4478 21.6884 62.6305ZM25.6297 59.0384C25.8211 59.3553 25.3284 60.1169 24.9819 60.2376C24.7614 60.3143 24.1512 60.0658 23.6808 59.7473L24.1244 59.7852C24.5112 59.8272 24.8808 59.4092 24.9811 59.0947C25.0383 58.9161 24.9112 58.612 24.7254 58.3039C25.1498 58.5261 25.5262 58.8669 25.6297 59.0384ZM28.9772 55.3268C29.1686 55.6437 28.6759 56.4054 28.3295 56.5261C28.035 56.6283 26.8417 56.216 26.3562 55.7864C26.9065 55.8159 27.4076 55.931 27.5846 56.0098C27.784 56.0989 28.1856 55.6205 28.2344 55.0999C28.2483 54.9504 28.2348 54.8445 28.2024 54.7598C28.5712 54.9692 28.8965 55.1934 28.9772 55.3268ZM32.1945 51.8327C32.3859 52.1496 31.9303 52.7598 31.3713 52.9987C30.9073 53.1969 30.0646 52.6419 29.5423 52.2571C29.8708 52.2507 30.25 52.3042 30.5029 52.3729C30.9745 52.5008 31.3477 52.2199 31.5091 51.8694C31.5967 51.6796 31.412 51.3919 31.2678 51.0774C31.7086 51.328 32.0934 51.6652 32.1945 51.8327ZM35.4952 47.6612C35.6866 47.9781 35.2699 48.5515 34.7108 48.7905C34.2313 48.9954 33.4896 48.3185 32.9038 48.074C33.1531 48.03 33.2726 48.0556 33.4069 48.1263L33.6938 48.2977C34.055 48.5079 34.4231 48.1962 34.6944 47.8558C34.8571 47.6516 34.6944 47.2364 34.4974 46.8907C34.9614 47.1245 35.3857 47.4801 35.4952 47.6612ZM38.2673 43.3522C38.4587 43.6691 38.0419 44.2425 37.4829 44.4815C36.9814 44.6957 36.537 44.2681 36.0111 44.123C36.4927 43.9188 36.704 44.0495 36.949 44.0076L37.1025 43.9576C37.4297 43.7986 37.6555 43.8821 37.8174 43.6C37.9368 43.3922 37.4645 43.0521 37.208 42.6001C37.6955 42.698 38.1223 43.1124 38.2673 43.3522ZM41.624 39.2195C41.8154 39.5364 41.3986 40.1098 40.8396 40.3487C40.4276 40.5246 39.8398 40.3531 39.3151 40.2201C39.8721 40.1226 40.4739 39.9895 40.7864 39.6522C40.985 39.4376 40.9787 39.0684 40.8883 38.6892C41.2376 38.843 41.5289 39.0616 41.624 39.2195ZM43.6432 34.8086C43.8858 35.3792 43.3603 35.8655 42.8013 36.1041C42.4932 36.2356 42.0876 36.1109 41.7039 36.0122C42.3309 35.9563 42.7893 35.8216 42.6142 35.5519C42.4104 35.2386 42.7118 35.3413 43.1853 35.1407C43.4279 35.038 43.312 34.6659 43.0702 34.2655C43.3339 34.3958 43.5473 34.5836 43.6432 34.8086ZM45.6189 30.1316C45.8615 30.7022 45.067 31.3296 44.508 31.5682C43.9489 31.8067 42.88 30.9899 42.3953 31.2285C42.3205 31.2653 42.2666 31.2505 42.231 31.1981L42.472 31.0899C43.0047 30.9376 43.7799 31.1354 44.1919 31.1989C44.6726 31.2729 44.8329 30.9756 44.6063 30.5935C44.3801 30.2115 44.9951 30.2247 44.8181 29.887C44.7597 29.7759 44.5911 29.6081 44.3661 29.4207C44.9444 29.5689 45.4914 29.8319 45.6189 30.1316ZM47.1866 25.3067C47.5438 26.0676 47.0623 26.4236 46.098 26.9931C45.2413 27.4994 43.857 27.222 43.2193 27.3219L43.0178 27.3795C42.9543 27.4107 42.9032 27.3963 42.8648 27.3463L42.9351 27.2972L43.1114 27.1917C43.72 26.85 44.1659 26.9243 44.9048 26.8156C45.5697 26.7177 46.0753 26.3461 45.7983 26.016L45.676 25.9081C45.1665 25.5561 46.2275 25.7651 46.0804 25.3371C45.9726 25.0238 45.278 24.651 44.7174 24.4564C45.9254 24.1746 46.8737 24.6406 47.1866 25.3067Z" fill="#BEB9B5"/>
<path d="M0.588205 84.7721C0.50109 84.5075 0.206182 82.9579 0.729667 82.8496C1.25355 82.7413 5.29358 82.0396 9.18535 80.8659C13.0771 79.6919 23.005 75.9551 33.0071 71.231C43.0093 66.5068 50.5979 63.1781 59.6066 58.6765C68.6154 54.1749 82.9521 45.981 86.9605 43.9238C90.969 41.8666 95.5501 39.0965 95.6732 38.9803C95.7962 38.864 95.3611 38.5507 95.7939 38.4776C96.2266 38.4044 97.1397 39.8366 97.3619 40.281C97.5845 40.7253 99.3288 45.6541 99.8103 46.9952C100.292 48.3363 99.9026 50.2004 98.056 51.1343C96.2094 52.0686 80.5205 59.9097 76.3829 61.9809C72.2454 64.052 68.7476 65.4459 64.4702 67.5866C60.1928 69.7273 53.8215 73.2594 50.9164 74.7132C48.0112 76.1669 41.8429 79.2539 39.3389 80.5071C36.835 81.7602 20.8039 87.3991 19.1843 88.0013C17.5647 88.6039 5.25642 92.0026 4.14231 92.1772C3.02821 92.3518 2.24298 91.9922 1.99882 91.4843C1.75626 90.9756 0.136652 86.6782 0.0203665 85.7195C-0.09512 84.7605 0.675719 85.0366 0.588205 84.7721Z" fill="#DFD9D7"/>
<path d="M0.729763 82.8498L2.81171 82.4426C4.46209 82.1045 6.85055 81.5703 9.18585 80.8658L10.1117 80.5752C12.6468 79.7528 16.7968 78.2255 21.6404 76.2359C24.054 76.0828 26.2067 76.2627 27.9458 76.9428C31.601 78.3726 34.7703 79.8288 37.4545 81.3117L35.2103 82.1801C33.3257 82.8942 31.0508 83.7293 28.8102 84.5421L19.1852 88.0011C17.5656 88.6038 5.25731 92.0024 4.1432 92.177C3.0291 92.3517 2.24387 91.992 1.99971 91.4841L1.71199 90.7812C1.16933 89.3898 0.114364 86.4862 0.0212556 85.7194C-0.0950301 84.7603 0.675815 85.0369 0.588301 84.7723C0.500787 84.5078 0.206278 82.9581 0.729763 82.8498Z" fill="#D7D1CF"/>
<path d="M0.108965 85.1417L3.35537 84.3193C6.40438 83.5313 8.88034 82.8368 10.7841 82.2366L11.3975 82.04C15.3348 80.7552 18.0318 80.2002 19.9802 80.1438C21.9283 80.0871 24.1425 81.4142 25.0736 81.9748C25.5815 82.2805 26.4507 83.0106 27.6811 84.1651L28.2797 84.7341L19.1858 88.0009C17.5662 88.6035 5.25791 92.0021 4.1438 92.1768C3.0297 92.3514 2.24446 91.9918 2.0003 91.4839L1.71259 90.7809C1.16992 89.3895 0.114958 86.486 0.0218498 85.7191C-0.0137153 85.4314 0.0314413 85.2552 0.108965 85.1417Z" fill="#D0CDCC"/>
<path d="M0.109083 85.1419L3.35549 84.3195L6.21349 83.5626C7.99174 83.0791 9.51504 82.6371 10.7842 82.2367L12.7527 81.6117C12.97 81.5454 13.183 81.4815 13.392 81.4199L17.0217 88.6752L14.3335 89.4492C10.182 90.6257 4.85762 92.0655 4.14272 92.1774C3.02861 92.352 2.24338 91.9923 1.99922 91.4844L1.7119 90.7815L1.23198 89.5116C0.7021 88.0722 0.0910941 86.2951 0.0211628 85.7197C-0.013603 85.4316 0.0315592 85.2554 0.109083 85.1419Z" fill="#CDCAC8"/>
<path d="M0.109083 85.1419L3.35549 84.3195L5.34114 83.798C5.65722 83.7133 5.96612 83.6302 6.26782 83.5479L6.89281 85.3721C7.70681 87.6866 8.44249 89.5312 9.09984 90.9062L5.85344 91.7674C4.9767 91.9935 4.35611 92.1442 4.14312 92.1774C3.02901 92.352 2.24378 91.9923 1.99962 91.4844L1.7119 90.7815L1.23198 89.5116C0.702099 88.0722 0.0910941 86.2951 0.0211628 85.7197C-0.013603 85.4316 0.0315592 85.2554 0.109083 85.1419Z" fill="#C5C2C0"/>
<path d="M0.108902 85.1417L1.58905 84.7665L2.13092 86.1807C3.35451 89.31 4.29519 91.2489 4.95335 91.997L4.14334 92.1772C3.02923 92.3519 2.244 91.9922 1.99984 91.4843L1.71213 90.7814L1.23219 89.5114C0.702315 88.0721 0.091315 86.295 0.0213836 85.7196C-0.0137818 85.4315 0.0313776 85.2552 0.108902 85.1417Z" fill="#BEB9B6"/>
<path d="M95.7939 38.4771C96.2267 38.4039 97.1398 39.8361 97.362 40.2805L97.499 40.6106C97.9774 41.835 99.3856 45.8115 99.8104 46.9951C100.292 48.3362 99.9027 50.2004 98.0561 51.1342L76.383 61.9808C72.2451 64.0516 68.7477 65.4458 64.4703 67.5865L62.2425 68.7258C59.8964 69.9454 57.2674 71.362 54.9996 72.5732C55.6082 70.311 51.7336 68.2546 43.3806 66.4025L48.0057 64.2546C51.8175 62.4759 55.5694 60.6941 59.6067 58.6768L61.2487 57.8461C69.7028 53.5207 81.5883 46.7709 86.149 44.3489L88.4807 43.1261C92.0444 41.2164 95.5657 39.0825 95.6732 38.9806C95.7963 38.8635 95.3611 38.5502 95.7939 38.4771Z" fill="#D8D2D0"/>
<path d="M95.7945 38.4771C96.2273 38.4039 97.1404 39.8361 97.3626 40.2805L97.4996 40.6106L98.2169 42.5471C98.8076 44.1759 99.5276 46.2059 99.811 46.9951C100.292 48.3362 99.9033 50.2003 98.0567 51.1342L76.3836 61.9807C74.9006 62.7228 73.5 63.3782 72.1162 64.0119C68.7179 64.6841 66.2256 62.3684 62.8709 60.8407L62.2315 60.5645C60.671 59.9284 60.6203 58.9142 61.6293 57.6526L64.9149 55.9355C72.8427 51.7408 82.2175 46.4364 86.1496 44.3485L88.4813 43.1257L90.4006 42.0751C93.2127 40.5071 95.5855 39.0633 95.6738 38.9802C95.7969 38.8635 95.3617 38.5502 95.7945 38.4771Z" fill="#CCC7C5"/>
<path d="M95.7948 38.4771C96.2276 38.4039 97.1407 39.8361 97.3629 40.2805L97.4999 40.6106L98.2172 42.5471C98.8078 44.1759 99.5279 46.2058 99.8112 46.9951C100.293 48.3362 99.9036 50.2003 98.057 51.1342L86.2702 57.0328C83.3898 54.8569 80.8063 52.0233 78.5198 48.5316L83.5253 45.7703C84.551 45.208 85.439 44.7257 86.1495 44.3485L88.4812 43.1257L90.4005 42.0751L91.8379 41.2635C93.9786 40.0399 95.601 39.0489 95.6737 38.9802C95.7972 38.8635 95.362 38.5502 95.7948 38.4771Z" fill="#C6C1C0"/>
<path d="M95.7944 38.4771C96.2272 38.4039 97.1403 39.8361 97.3625 40.2805L97.4996 40.6106L98.2169 42.5471C98.8075 44.1759 99.5276 46.2059 99.8109 46.9951C100.292 48.3362 99.9032 50.2003 98.0566 51.1342L94.055 53.1371C94.7559 52.4933 95.2318 51.931 95.4824 51.4499C96.3947 49.6988 94.9397 45.5773 94.7051 43.3123C94.5848 42.1514 93.1634 41.7303 90.4409 42.0492L91.8375 41.2631C93.9782 40.0395 95.6006 39.0485 95.6734 38.9798C95.7968 38.8635 95.3617 38.5502 95.7944 38.4771Z" fill="#C1BCBB"/>
<path d="M9.18592 80.8655L10.0431 80.597C14.2462 79.2391 23.0163 75.8904 32.0079 71.6997L37.1576 69.2841C45.2069 65.5318 51.8851 62.5347 59.6072 58.6765L61.2491 57.8457C69.7032 53.5204 81.5887 46.7706 86.1495 44.3486L88.4812 43.1258C92.0449 41.2161 95.5662 39.0822 95.6737 38.9803C95.7968 38.864 95.3616 38.5507 95.7944 38.4776C96.2272 38.4044 97.1403 39.8366 97.3624 40.281L97.4971 40.6047C96.9189 40.0772 96.3183 39.0566 96.182 39.0438C95.9618 39.0226 95.9135 39.1521 95.8128 39.2392L95.5622 39.435C94.4345 40.2574 91.0219 42.2259 85.7862 45.0259L54.3971 61.4989L50.2076 63.6452C45.5698 65.9322 30.891 72.8566 22.0721 76.5094L20.3386 77.2127C12.589 80.2925 5.63102 82.203 3.41479 82.3173L4.89774 81.9908C6.21564 81.6875 7.71137 81.3103 9.18592 80.8655Z" fill="#D1EFA4"/>
<path d="M0.59193 84.8138C1.08145 84.5956 5.23457 83.8156 9.18069 82.5768L12.6197 81.4703C16.022 80.4129 19.5305 79.5198 21.3827 80.0405C23.5262 80.6427 24.9604 81.5326 26.0805 82.4297L27.9682 84.0026C28.1776 84.1728 28.2999 84.2699 28.3359 84.2959L28.4258 84.2831C29.1755 84.1045 34.4866 82.2779 41.3667 79.491L39.3399 80.5072L38.7417 80.7813C36.7824 81.6297 32.0414 83.3752 27.7025 84.9433L19.1853 88.0015C17.5657 88.6041 5.25735 92.0027 4.14325 92.1774L3.91587 92.2017L4.46732 92.0735C11.528 90.3843 19.3207 87.874 27.8452 84.5416C27.4799 84.0517 24.4289 81.3388 22.0485 80.7562L21.0359 80.5076C19.4486 80.1412 18.1519 80.0844 13.946 81.3927L10.5418 82.4849C5.18342 84.1516 0.854872 85.1203 0.524796 85.2689C0.4189 85.3165 0.309405 85.4004 0.196316 85.5207L0.0224943 85.7253C0.00970685 85.6222 -0.0302588 85.3469 0.0424698 85.1926C0.115198 85.0388 0.255861 84.9784 0.396523 84.9389C0.466854 84.9161 0.529594 84.8993 0.564759 84.8709L0.59193 84.8138Z" fill="#EBEBEB"/>
<path d="M51.8754 41.6531L55.688 44.8144L60.4537 43.4657L58.6255 48.0688L61.3812 52.1848L56.4381 51.8683L53.3755 55.7608L52.1491 50.962L47.5005 49.252L51.6852 46.6026L51.8754 41.6531Z" fill="#720834"/>
</svg>
